<svg width="20" height="20" viewBox="0 0 20 20" fill="none" xmlns="http://www.w3.org/2000/svg">
<g id="icon/add">
<mask id="mask0_124_243" style="mask-type:alpha" maskUnits="userSpaceOnUse" x="0" y="0" width="20" height="20">
<rect id="Bounding box" width="20" height="20" fill="#D9D9D9"/>
</mask>
<g mask="url(#mask0_124_243)">
<path id="add" d="M9.16657 10.8337H4.9999C4.76379 10.8337 4.56587 10.7538 4.40615 10.5941C4.24643 10.4344 4.16656 10.2364 4.16656 10.0003C4.16656 9.76421 4.24643 9.5663 4.40615 9.40658C4.56587 9.24685 4.76379 9.16699 4.9999 9.16699H9.16657V5.00033C9.16657 4.76421 9.24643 4.5663 9.40615 4.40658C9.56587 4.24685 9.76379 4.16699 9.9999 4.16699C10.236 4.16699 10.4339 4.24685 10.5936 4.40658C10.7534 4.5663 10.8332 4.76421 10.8332 5.00033V9.16699H14.9999C15.236 9.16699 15.4339 9.24685 15.5936 9.40658C15.7534 9.5663 15.8332 9.76421 15.8332 10.0003C15.8332 10.2364 15.7534 10.4344 15.5936 10.5941C15.4339 10.7538 15.236 10.8337 14.9999 10.8337H10.8332V15.0003C10.8332 15.2364 10.7534 15.4344 10.5936 15.5941C10.4339 15.7538 10.236 15.8337 9.9999 15.8337C9.76379 15.8337 9.56587 15.7538 9.40615 15.5941C9.24643 15.4344 9.16657 15.2364 9.16657 15.0003V10.8337Z" fill="#E84C4B"/>
</g>
</g>
</svg>
