<svg width="26" height="20" fill="none" xmlns="http://www.w3.org/2000/svg">
    <path
            d="M13.353 5.045V3.813c0-.201-.158-.363-.353-.363a.358.358 0 0 0-.352.363v1.232c0 .2.157.363.352.363a.358.358 0 0 0 .353-.363ZM19.83 6.362a.345.345 0 0 0-.498 0l-.847.872a.371.371 0 0 0 0 .513.346.346 0 0 0 .499 0l.846-.871a.37.37 0 0 0 0-.514ZM7.265 7.854c.09 0 .18-.036.25-.107a.371.371 0 0 0 0-.513l-.847-.872a.345.345 0 0 0-.499 0 .37.37 0 0 0 0 .514l.847.871c.069.071.159.107.25.107Z"
            fill="#A771FE"
            stroke="#A771FE"
            stroke-width=".5"
    />
    <path
            fill-rule="evenodd"
            clip-rule="evenodd"
            d="M17.787 10.985a.284.284 0 0 1-.251.408.279.279 0 0 1-.251-.16 4.833 4.833 0 0 0-1.558-1.857l-.593 1.539a3.275 3.275 0 0 1 1.07 2.428c0 1.797-1.437 3.259-3.204 3.259-1.422 0-2.63-.946-3.048-2.252-.102-.317.448-.433.533-.17.347 1.075 1.343 1.854 2.515 1.854 1.459 0 2.646-1.207 2.646-2.69 0-1.477-1.182-2.692-2.646-2.692-.92 0-1.76.476-2.248 1.272a.277.277 0 0 1-.385.091.287.287 0 0 1-.09-.39 3.176 3.176 0 0 1 3.344-1.479L14.67 8.81c-2.283-.87-4.873.157-5.955 2.423a.277.277 0 0 1-.373.132.286.286 0 0 1-.13-.38c1.243-2.602 4.25-3.723 6.822-2.64l.993-1.265c.199-.253.594-.02.478.281l-.568 1.474a5.396 5.396 0 0 1 1.85 2.15Zm-2.414-1.599-.02-.007-1.149 1.011c.188.053.37.118.543.193l.66-1.184-.034-.013Z"
            fill="#A771FE"
    />
    <path
            d="m17.787 10.985.226-.108-.226.107Zm-.502.248.226-.108-.226.107Zm-1.558-1.857.146-.204-.263-.186-.116.3.233.09Zm-.593 1.539-.233-.09-.062.16.127.115.168-.185ZM9.952 14.35l-.238.076.238-.076Zm.533-.17-.238.077.238-.077Zm.267-2.256.213.13-.213-.13Zm-.385.091-.133.212.133-.212Zm-.09-.39.214.13-.213-.13Zm3.344-1.479-.05.245.152.03.094-.12-.196-.155ZM14.67 8.81l.196.154.21-.267-.317-.12-.09.233Zm-5.955 2.423-.226-.107.226.107Zm-.373.132.11-.224-.11.224Zm-.13-.38.226.108-.225-.107Zm6.822-2.64-.097.231.176.074.118-.15-.197-.154Zm.993-1.265.197.155-.197-.155Zm.478.281-.233-.09.233.09Zm-.568 1.474-.234-.09-.071.186.165.111.14-.207Zm-.584.545.086-.235-.14-.051-.111.098.165.188Zm.02.007-.085.235.085-.235Zm-1.169 1.004-.165-.188-.344.304.441.125.068-.24Zm.543.193-.1.23.208.089.11-.197-.218-.122Zm.66-1.184.22.122.14-.254-.27-.102-.09.234Zm2.129 2.244a.534.534 0 0 0 .477-.766l-.452.215a.035.035 0 0 1-.002.036.035.035 0 0 1-.011.012.023.023 0 0 1-.012.003v.5Zm-.477-.303c.09.19.28.303.477.303v-.5a.029.029 0 0 1-.026-.018l-.451.215Zm-1.477-1.76a4.583 4.583 0 0 1 1.477 1.76l.451-.215a5.083 5.083 0 0 0-1.638-1.953l-.29.408Zm-.215 1.425.594-1.539-.467-.18-.593 1.539.466.18Zm1.087 2.338c0-1.037-.445-1.97-1.152-2.613l-.336.37c.606.551.988 1.352.988 2.243h.5ZM13 16.852c1.909 0 3.454-1.578 3.454-3.509h-.5c0 1.663-1.33 3.009-2.954 3.009v.5Zm-3.286-2.426c.45 1.404 1.75 2.426 3.286 2.426v-.5c-1.307 0-2.423-.87-2.81-2.078l-.476.152Zm1.009-.322a.452.452 0 0 0-.29-.29.606.606 0 0 0-.652.189.458.458 0 0 0-.067.423l.476-.152c-.002-.006 0-.002-.001.008a.05.05 0 0 1-.009.02c-.002.004-.002.002.005-.002a.106.106 0 0 1 .027-.01.142.142 0 0 1 .037-.005c.011 0 .018.002.021.002l-.007-.005a.061.061 0 0 1-.016-.025l.476-.153ZM13 15.784c-1.058 0-1.962-.703-2.277-1.68l-.476.153c.378 1.173 1.467 2.027 2.753 2.027v-.5Zm2.396-2.44c0 1.349-1.08 2.44-2.396 2.44v.5c1.6 0 2.896-1.323 2.896-2.94h-.5ZM13 10.901c1.321 0 2.396 1.098 2.396 2.441h.5c0-1.61-1.29-2.94-2.896-2.94v.5Zm-2.035 1.153A2.373 2.373 0 0 1 13 10.902v-.5c-1.01 0-1.93.522-2.461 1.392l.426.26Zm-.731.172c.25.158.578.078.731-.172l-.426-.261c-.01.015-.027.017-.038.01l-.267.423Zm-.17-.733a.537.537 0 0 0 .17.733l.267-.423c-.014-.009-.021-.031-.01-.05l-.426-.26ZM13 9.834c-1.203 0-2.3.623-2.935 1.66l.426.26A2.926 2.926 0 0 1 13 10.335v-.5Zm.67.067a3.41 3.41 0 0 0-.67-.067v.5c.195 0 .386.02.572.058l.098-.49Zm.803-1.246-1.049 1.337.393.309 1.05-1.338-.394-.308ZM8.941 11.34c1.026-2.15 3.48-3.12 5.64-2.297l.178-.467c-2.406-.917-5.132.166-6.27 2.549l.452.215Zm-.71.248a.527.527 0 0 0 .71-.248l-.452-.215c-.008.018-.025.02-.036.015l-.222.448Zm-.244-.711a.536.536 0 0 0 .244.711l.222-.448c-.014-.007-.024-.028-.015-.048l-.451-.215Zm7.144-2.763c-2.697-1.135-5.845.04-7.144 2.763l.451.215c1.185-2.483 4.05-3.548 6.5-2.517l.193-.46Zm.7-1.189-.993 1.265.393.31.993-1.266-.394-.309Zm.907.525a.527.527 0 0 0-.227-.654.517.517 0 0 0-.68.129l.393.309a.045.045 0 0 1 .011-.012h.003c.001-.001.009-.001.02.005a.04.04 0 0 1 .017.018l.001.007c0 .002 0 .008-.004.018l.466.18Zm-.568 1.474.568-1.474-.466-.18-.569 1.474.467.18Zm1.843 1.953a5.645 5.645 0 0 0-1.937-2.25l-.28.414a5.145 5.145 0 0 1 1.765 2.051l.452-.215Zm-2.746-1.264.02.008.171-.47-.019-.007-.172.47Zm-.898.965 1.15-1.012-.331-.375-1.15 1.011.331.376Zm.477-.225a4.624 4.624 0 0 0-.574-.203l-.136.48c.178.051.349.112.512.182l.198-.459Zm.344-1.076-.661 1.184.436.243.661-1.183-.436-.244Zm.098.344.032.012.176-.468a2.917 2.917 0 0 0-.038-.014l-.17.47Z"
            fill="#A771FE"
    />
    <path
            d="M23.813 7.942a.348.348 0 0 0-.472-.166.368.368 0 0 0-.162.486 11.81 11.81 0 0 1 1.149 4.77h-6.236a.358.358 0 0 0-.353.363c0 2.69-2.126 4.879-4.739 4.879s-4.74-2.189-4.74-4.88c0-.2-.157-.363-.352-.363H1.672c.088-2.98 1.257-5.769 3.314-7.887C9.612.382 17.093.68 21.371 5.524c.418.474.96.007.512-.5-4.54-5.13-12.477-5.457-17.396-.393C2.214 6.971.961 10.084.961 13.395c0 .2.158.363.353.363h6.252C7.75 16.68 10.116 19 13 19c2.884 0 5.251-2.32 5.434-5.242h6.252a.358.358 0 0 0 .352-.363c0-1.912-.412-3.747-1.225-5.453Z"
            fill="#A771FE"
            stroke="#A771FE"
            stroke-width=".5"
    />
</svg>